<mxfile host="app.diagrams.net" modified="2023-07-04T09:31:32.292Z" agent="Mozilla/5.0 (X11; Linux x86_64) AppleWebKit/537.36 (KHTML, like Gecko) Chrome/114.0.0.0 Safari/537.36" version="21.5.0" etag="IlUorXTJ7B2YboQKMsYG" type="github">
  <diagram name="Page-1" id="I1F0ILxk5DXzvs8xpdoz">
    <mxGraphModel>
      <root>
        <mxCell id="0" />
        <mxCell id="1" parent="0" />
      </root>
    </mxGraphModel>
  </diagram>
</mxfile>
